<?xml version="1.0" standalone="no"?>
<!DOCTYPE svg PUBLIC "-//W3C//DTD SVG 20010904//EN"
 "http://www.w3.org/TR/2001/REC-SVG-20010904/DTD/svg10.dtd">
<svg version="1.0" xmlns="http://www.w3.org/2000/svg"
 width="1280.000000pt" height="1280.000000pt" viewBox="0 0 1280.000000 1280.000000"
 preserveAspectRatio="xMidYMid meet">
<metadata>
Created by potrace 1.11, written by Peter Selinger 2001-2013
</metadata>
<g transform="translate(0.000000,1280.000000) scale(0.100000,-0.100000)"
fill="#000000" stroke="none">
<path d="M5185 11805 c-125 -28 -251 -79 -358 -143 -80 -48 -84 -49 -182 -55
-246 -15 -468 -116 -633 -287 -77 -79 -129 -161 -145 -230 -12 -49 -14 -52
-73 -81 -169 -84 -292 -255 -319 -444 -6 -42 -8 -45 -103 -114 -161 -115 -369
-371 -527 -646 -91 -160 -97 -173 -90 -203 7 -33 11 -55 20 -112 4 -25 9 -53
11 -62 1 -9 5 -41 8 -70 4 -29 8 -62 10 -73 2 -11 7 -56 11 -100 4 -44 8 -93
10 -110 11 -84 23 -336 40 -810 3 -82 7 -181 10 -220 3 -38 7 -110 10 -160 3
-49 7 -108 10 -130 2 -22 7 -67 10 -100 3 -33 8 -71 10 -85 3 -14 7 -43 10
-65 7 -48 23 -141 31 -175 19 -89 26 -78 -105 -162 -345 -224 -573 -430 -1002
-903 -146 -161 -333 -357 -451 -473 -54 -53 -98 -99 -98 -102 0 -3 46 -4 102
-2 l103 4 120 107 c66 58 129 115 141 126 35 34 310 292 431 405 150 141 321
282 483 397 176 125 529 330 553 320 7 -3 32 -54 56 -113 64 -164 109 -252
200 -396 l42 -66 -6 -79 c-3 -43 -7 -103 -10 -133 -2 -30 -7 -93 -10 -140 -8
-126 -18 -190 -47 -303 l-9 -39 -27 18 c-77 50 -58 61 -173 -108 -57 -84 -116
-164 -130 -178 -14 -14 -88 -99 -165 -190 -76 -91 -143 -170 -149 -176 -5 -6
-25 -29 -43 -52 -32 -39 -43 -51 -95 -112 -12 -14 -56 -66 -97 -115 -41 -50
-77 -92 -80 -95 -3 -3 -25 -30 -50 -60 -25 -30 -47 -57 -50 -60 -3 -3 -78 -90
-165 -195 -88 -104 -172 -203 -186 -220 -29 -33 -399 -471 -464 -550 -22 -26
-45 -53 -50 -59 -6 -6 -33 -38 -60 -71 -28 -33 -52 -62 -55 -65 -19 -18 -220
-347 -220 -359 0 -5 -3 -11 -8 -13 -4 -1 -26 -34 -50 -73 -23 -38 -89 -146
-146 -240 -57 -93 -142 -232 -188 -308 -45 -76 -90 -149 -98 -162 -8 -14 -53
-86 -99 -162 -46 -76 -99 -163 -118 -193 -179 -287 -235 -379 -244 -403 -6
-15 -14 -27 -18 -27 -4 0 -13 -11 -19 -25 -6 -14 -54 -94 -107 -179 -52 -85
-95 -161 -95 -169 0 -12 8 -13 43 -6 200 39 301 80 432 174 62 45 113 92 278
264 214 220 368 299 657 335 106 13 390 14 505 2 69 -8 198 -25 235 -30 14 -2
48 -7 75 -11 78 -10 428 -81 566 -115 68 -17 135 -33 149 -36 14 -3 58 -14 98
-25 539 -144 919 -262 1682 -522 297 -101 438 -140 620 -173 14 -2 34 -6 45
-9 11 -2 43 -7 70 -10 28 -3 64 -8 80 -10 30 -5 48 -7 180 -21 142 -15 838 -7
932 10 10 2 59 7 108 10 50 4 97 9 105 11 8 2 50 7 93 10 43 4 86 8 95 9 18 4
119 17 162 21 118 13 154 17 168 20 9 1 46 6 82 10 36 3 76 8 90 10 14 2 54 6
90 10 36 3 72 8 80 10 8 3 47 7 85 10 39 3 108 10 155 15 47 5 123 12 170 15
108 8 173 14 175 17 2 3 -182 286 -245 378 -17 25 -174 261 -349 525 -296 449
-322 485 -396 550 -44 39 -97 86 -118 105 -21 19 -45 39 -53 43 -12 7 -8 21
24 80 22 40 77 144 122 232 45 88 106 205 135 260 130 247 186 358 183 360 -3
3 -52 7 -258 21 -178 11 -172 9 -158 61 11 42 54 108 108 168 20 22 55 60 77
85 l41 44 233 -77 c216 -72 449 -136 543 -151 21 -4 48 -9 60 -11 89 -22 274
-33 501 -30 317 5 370 11 465 58 97 48 278 269 331 404 15 40 23 83 25 140 3
78 0 91 -72 305 -66 196 -75 230 -71 278 9 106 65 228 155 337 27 33 33 48 28
68 -6 25 -1 23 119 -40 268 -140 385 -227 443 -330 106 -186 144 -373 118
-586 -7 -62 -7 -61 -35 -198 -30 -152 -44 -339 -45 -616 0 -154 9 -371 18
-421 2 -10 7 -46 11 -79 4 -33 18 -111 31 -172 98 -459 326 -786 676 -972 95
-50 287 -115 388 -131 41 -6 88 -14 104 -16 16 -3 33 -7 37 -10 5 -3 39 -5 76
-6 256 -3 537 243 757 664 77 146 156 345 195 494 9 35 16 42 50 52 75 23 102
68 175 290 69 210 72 224 55 285 -22 81 -78 118 -369 242 -233 100 -528 191
-741 229 -8 1 -45 8 -84 15 -89 17 -142 4 -196 -47 -35 -33 -46 -56 -105 -232
-48 -141 -66 -209 -66 -246 0 -54 19 -101 52 -132 l21 -19 -31 -94 c-17 -52
-34 -101 -37 -109 -7 -18 -6 -14 -36 -130 -14 -52 -33 -137 -43 -189 l-17 -93
-42 43 c-92 98 -189 259 -250 417 -32 85 -95 308 -109 392 -3 19 -8 46 -11 60
-8 40 -29 181 -80 545 -14 99 -27 187 -30 195 -2 8 -6 32 -10 54 -12 86 -49
248 -81 361 -74 255 -148 426 -219 498 -44 46 -59 53 -263 128 -119 44 -235
87 -257 94 -100 36 -140 54 -140 63 0 6 -6 17 -12 24 -7 6 -13 15 -13 19 0 4
-15 34 -34 66 -42 70 -74 164 -83 241 -11 89 -6 299 6 307 3 1 35 6 71 10 36
3 76 8 90 10 14 2 54 6 90 10 36 3 83 8 105 11 22 2 103 11 179 20 116 13 150
20 200 45 100 50 129 89 125 167 -3 49 -8 60 -107 212 -30 47 -74 114 -97 150
-23 36 -50 78 -61 94 -22 34 -13 19 -139 215 -55 86 -132 204 -170 263 -39 59
-74 115 -80 125 -19 35 -83 118 -107 138 -12 11 -57 47 -98 80 -74 59 -120
105 -151 152 -18 28 -28 8 108 231 l42 69 -69 274 c-37 151 -71 281 -75 290
-6 15 1 15 71 3 42 -7 95 -16 118 -19 22 -3 52 -8 66 -10 35 -6 77 -13 130
-20 25 -3 68 -10 95 -15 28 -5 68 -12 90 -15 62 -8 353 -54 415 -65 30 -5 78
-12 105 -16 28 -3 52 -7 55 -9 3 -2 34 -6 70 -10 36 -4 67 -8 70 -10 3 -2 26
-6 50 -10 64 -9 97 -14 165 -26 33 -6 73 -13 89 -15 157 -20 752 -134 1066
-204 176 -39 185 -40 197 -23 8 10 19 25 26 33 53 66 67 90 55 95 -24 8 -206
57 -358 96 -41 11 -115 29 -165 40 -49 11 -97 22 -105 24 -119 28 -353 79
-455 100 -165 34 -163 34 -205 41 -19 4 -44 9 -55 11 -18 4 -142 27 -545 103
-188 35 -634 119 -660 123 -14 3 -81 15 -150 27 -69 12 -130 23 -135 25 -6 1
-21 34 -33 71 -117 348 -278 709 -451 1008 -28 49 -51 91 -51 92 0 12 -296
485 -475 759 -50 77 -148 230 -218 340 l-127 201 -123 28 c-157 36 -313 73
-561 132 l-200 47 -80 -13 c-158 -24 -205 -27 -486 -30 -85 -1 -181 -6 -212
-10 -51 -7 -65 -5 -128 21 -131 55 -238 56 -463 5 l-157 -35 -33 19 c-64 38
-128 52 -257 55 -103 3 -143 -1 -225 -20z m365 -60 l55 -17 -75 -20 c-41 -10
-132 -35 -202 -54 -123 -35 -129 -35 -182 -22 -59 14 -127 16 -216 4 l-55 -7
49 25 c104 55 231 95 341 109 70 9 232 -1 285 -18z m-971 -237 c-92 -63 -121
-104 -128 -180 -1 -8 -487 -248 -502 -248 -14 0 -11 11 24 74 105 188 323 339
552 381 119 22 123 20 54 -27z"/>
</g>
</svg>
